HIERARCHY
ROOT hips
{
  OFFSET 0 10.6860622 2.3727825e-15
  CHANNELS 6 Xposition Yposition Zposition Yrotation Xrotation Zrotation
  JOINT leftUpperLeg
  {
    OFFSET 0.6642549969 -0.9402397400000004 0
    CHANNELS 3 Yrotation Xrotation Zrotation
    JOINT leftLowerLeg
    {
      OFFSET 0 -3.997221335632195 0
      CHANNELS 3 Yrotation Xrotation Zrotation
      JOINT leftFoot
      {
        OFFSET -0.13777839790000004 -4.6145792000000005 -0.22186036399999998
        CHANNELS 3 Yrotation Xrotation Zrotation
        JOINT leftToes
        {
          OFFSET -0.03777410834999995 -0.9130806927000008 0.85230013
          CHANNELS 3 Yrotation Xrotation Zrotation
          End Site
          {
            OFFSET -0.03777410834999995 -0.9130806927000008 0.85230013
          }
        }
      }
    }
  }
  JOINT rightUpperLeg
  {
    OFFSET -0.6642778626 -0.9402397400000004 0
    CHANNELS 3 Yrotation Xrotation Zrotation
    JOINT rightLowerLeg
    {
      OFFSET 0 -3.997221452859387 0
      CHANNELS 3 Yrotation Xrotation Zrotation
      JOINT rightFoot
      {
        OFFSET 0.1377926176 -4.6145792000000005 -0.22185782299999995
        CHANNELS 3 Yrotation Xrotation Zrotation
        JOINT rightToes
        {
          OFFSET 0.037780746850000047 -0.9130806927000008 0.85230167
          CHANNELS 3 Yrotation Xrotation Zrotation
          End Site
          {
            OFFSET 0.037780746850000047 -0.9130806927000008 0.85230167
          }
        }
      }
    }
  }
  JOINT spine
  {
    OFFSET 0 0.13988381660000015 0
    CHANNELS 3 Yrotation Xrotation Zrotation
    JOINT chest
    {
      OFFSET 0 0.6191039003973773 0
      CHANNELS 3 Yrotation Xrotation Zrotation
      JOINT upperChest
      {
        OFFSET 0 0.9855186130586943 0
        CHANNELS 3 Yrotation Xrotation Zrotation
        JOINT leftShoulder
        {
          OFFSET 0.1807663869 1.5087829790000005 0
          CHANNELS 3 Yrotation Xrotation Zrotation
          JOINT leftUpperArm
          {
            OFFSET 0.5985063006419806 0 0
            CHANNELS 3 Yrotation Xrotation Zrotation
            JOINT leftLowerArm
            {
              OFFSET 2.2993332369501065 0 0
              CHANNELS 3 Yrotation Xrotation Zrotation
              JOINT leftHand
              {
                OFFSET 2.395047042602395 0 0
                CHANNELS 3 Yrotation Xrotation Zrotation
                JOINT leftIndexProximal
                {
                  OFFSET 0.5766295810000004 0.04556643899499946 0.17265095988184
                  CHANNELS 3 Yrotation Xrotation Zrotation
                  JOINT leftIndexIntermediate
                  {
                    OFFSET 0.2957229000000008 -0.019352197700001517 -0.007932640616999987
                    CHANNELS 3 Yrotation Xrotation Zrotation
                    JOINT leftIndexDistal
                    {
                      OFFSET 0.19008243099999922 -0.012484908149998475 -0.002786250786000012
                      CHANNELS 3 Yrotation Xrotation Zrotation
                      End Site
                      {
                        OFFSET 0.19008243099999922 -0.012484908149998475 -0.002786250786000012
                      }
                    }
                  }
                }
                JOINT leftMiddleProximal
                {
                  OFFSET 0.5834975091000001 0.0524350405149987 0.02204081888183999
                  CHANNELS 3 Yrotation Xrotation Zrotation
                  JOINT leftMiddleIntermediate
                  {
                    OFFSET 0.33880573540000003 -0.019871473270000717 -0.00000971183179999946
                    CHANNELS 3 Yrotation Xrotation Zrotation
                    JOINT leftMiddleDistal
                    {
                      OFFSET 0.20676022730000088 -0.012221336379999448 0.0001471936708000235
                      CHANNELS 3 Yrotation Xrotation Zrotation
                      End Site
                      {
                        OFFSET 0.20676022730000088 -0.012221336379999448 0.0001471936708000235
                      }
                    }
                  }
                }
                JOINT leftLittleProximal
                {
                  OFFSET 0.5344154683999995 -0.012880921405001189 -0.24414037221816004
                  CHANNELS 3 Yrotation Xrotation Zrotation
                  JOINT leftLittleIntermediate
                  {
                    OFFSET 0.21758961730000093 -0.011650919939999227 0.011893592810000034
                    CHANNELS 3 Yrotation Xrotation Zrotation
                    JOINT leftLittleDistal
                    {
                      OFFSET 0.1475273964999999 -0.008152365682999818 0.006001092492999946
                      CHANNELS 3 Yrotation Xrotation Zrotation
                      End Site
                      {
                        OFFSET 0.1475273964999999 -0.008152365682999818 0.006001092492999946
                      }
                    }
                  }
                }
                JOINT leftRingProximal
                {
                  OFFSET 0.5799399463000003 0.026911854694997794 -0.12150566991816003
                  CHANNELS 3 Yrotation Xrotation Zrotation
                  JOINT leftRingIntermediate
                  {
                    OFFSET 0.26167887460000006 -0.013480186499999602 0.010996293000000053
                    CHANNELS 3 Yrotation Xrotation Zrotation
                    JOINT leftRingDistal
                    {
                      OFFSET 0.17667108799999987 -0.008990287899999228 0.0055541023999999065
                      CHANNELS 3 Yrotation Xrotation Zrotation
                      End Site
                      {
                        OFFSET 0.17667108799999987 -0.008990287899999228 0.0055541023999999065
                      }
                    }
                  }
                }
                JOINT leftThumbProximal
                {
                  OFFSET 0.11018806699999972 -0.09448718900500053 0.17047963138184
                  CHANNELS 3 Yrotation Xrotation Zrotation
                  JOINT leftThumbIntermediate
                  {
                    OFFSET 0.31062601459999983 -0.08126270900000132 0.15443142000000007
                    CHANNELS 3 Yrotation Xrotation Zrotation
                    JOINT leftThumbDistal
                    {
                      OFFSET 0.21627175790000086 -0.08833193599999878 0.018771167799999988
                      CHANNELS 3 Yrotation Xrotation Zrotation
                      End Site
                      {
                        OFFSET 0.21627175790000086 -0.08833193599999878 0.018771167799999988
                      }
                    }
                  }
                }
              }
            }
          }
        }
        JOINT neck
        {
          OFFSET 0 1.5463305265074576 0
          CHANNELS 3 Yrotation Xrotation Zrotation
          JOINT head
          {
            OFFSET 0 0.8456443600000344 0
            CHANNELS 3 Yrotation Xrotation Zrotation
            JOINT leftEye
            {
              OFFSET 0.30408573140000006 0.5104519199999995 0.1276382305
              CHANNELS 3 Yrotation Xrotation Zrotation
              End Site
              {
                OFFSET 0.30408573140000006 0.5104519199999995 0.1276382305
              }
            }
            JOINT rightEye
            {
              OFFSET -0.30409491089999996 0.5104519199999995 0.1276379445
              CHANNELS 3 Yrotation Xrotation Zrotation
              End Site
              {
                OFFSET -0.30409491089999996 0.5104519199999995 0.1276379445
              }
            }
            JOINT jaw
            {
              OFFSET -3.155239131000001e-7 -0.11984121820000082 0.60178107
              CHANNELS 3 Yrotation Xrotation Zrotation
              End Site
              {
                OFFSET -3.155239131000001e-7 -0.11984121820000082 0.60178107
              }
            }
          }
        }
        JOINT rightShoulder
        {
          OFFSET -0.1807303465 1.5087829790000005 0
          CHANNELS 3 Yrotation Xrotation Zrotation
          JOINT rightUpperArm
          {
            OFFSET -0.5985063796536958 0 0
            CHANNELS 3 Yrotation Xrotation Zrotation
            JOINT rightLowerArm
            {
              OFFSET -2.2993322059002854 0 0
              CHANNELS 3 Yrotation Xrotation Zrotation
              JOINT rightHand
              {
                OFFSET -2.395045314457259 0 0
                CHANNELS 3 Yrotation Xrotation Zrotation
                JOINT rightIndexProximal
                {
                  OFFSET -0.5764487688300002 0.0441371204405987 0.17361932004999997
                  CHANNELS 3 Yrotation Xrotation Zrotation
                  JOINT rightIndexIntermediate
                  {
                    OFFSET -0.29573011380000047 -0.01934826376999843 -0.007698921482999974
                    CHANNELS 3 Yrotation Xrotation Zrotation
                    JOINT rightIndexDistal
                    {
                      OFFSET -0.19008373999999884 -0.012503266380000655 -0.0026365778999999897
                      CHANNELS 3 Yrotation Xrotation Zrotation
                      End Site
                      {
                        OFFSET -0.19008373999999884 -0.012503266380000655 -0.0026365778999999897
                      }
                    }
                  }
                }
                JOINT rightMiddleProximal
                {
                  OFFSET -0.5834852037300005 0.05211639405060153 0.02307162440000001
                  CHANNELS 3 Yrotation Xrotation Zrotation
                  JOINT rightMiddleIntermediate
                  {
                    OFFSET -0.33880114510000003 -0.019952774050000954 0.0002455003561999819
                    CHANNELS 3 Yrotation Xrotation Zrotation
                    JOINT rightMiddleDistal
                    {
                      OFFSET -0.20675694929999955 -0.012273788999999091 0.00030209124000002766
                      CHANNELS 3 Yrotation Xrotation Zrotation
                      End Site
                      {
                        OFFSET -0.20675694929999955 -0.012273788999999091 0.00030209124000002766
                      }
                    }
                  }
                }
                JOINT rightLittleProximal
                {
                  OFFSET -0.5346811737299992 -0.011214256288399227 -0.24363941305000003
                  CHANNELS 3 Yrotation Xrotation Zrotation
                  JOINT rightLittleIntermediate
                  {
                    OFFSET -0.21757715980000092 -0.011771559690000988 0.01201554387
                    CHANNELS 3 Yrotation Xrotation Zrotation
                    JOINT rightLittleDistal
                    {
                      OFFSET -0.1475201849000004 -0.00822055339600003 0.006082065407000015
                      CHANNELS 3 Yrotation Xrotation Zrotation
                      End Site
                      {
                        OFFSET -0.1475201849000004 -0.00822055339600003 0.006082065407000015
                      }
                    }
                  }
                }
                JOINT rightRingProximal
                {
                  OFFSET -0.5800810755299999 0.027657985680600072 -0.12066365025000003
                  CHANNELS 3 Yrotation Xrotation Zrotation
                  JOINT rightRingIntermediate
                  {
                    OFFSET -0.26166445029999974 -0.013623118409999302 0.011164098990000045
                    CHANNELS 3 Yrotation Xrotation Zrotation
                    JOINT rightRingDistal
                    {
                      OFFSET -0.17666387530000027 -0.009072900100000503 0.005668185599999959
                      CHANNELS 3 Yrotation Xrotation Zrotation
                      End Site
                      {
                        OFFSET -0.17666387530000027 -0.009072900100000503 0.005668185599999959
                      }
                    }
                  }
                }
                JOINT rightThumbProximal
                {
                  OFFSET -0.10997596379000074 -0.09577489355940072 0.16989765924999997
                  CHANNELS 3 Yrotation Xrotation Zrotation
                  JOINT rightThumbIntermediate
                  {
                    OFFSET -0.31036620999999986 -0.08229339117999834 0.15440884469999996
                    CHANNELS 3 Yrotation Xrotation Zrotation
                    JOINT rightThumbDistal
                    {
                      OFFSET -0.21631306399999906 -0.08825326400000111 0.018656797720000014
                      CHANNELS 3 Yrotation Xrotation Zrotation
                      End Site
                      {
                        OFFSET -0.21631306399999906 -0.08825326400000111 0.018656797720000014
                      }
                    }
                  }
                }
              }
            }
          }
        }
      }
    }
  }
}
MOTION
Frames: 8
Frame Time: 0.03333333333333333
0 11.682712981546562 0 0 0 0 0 0 -5.826343164929014 -0.3712483961610101 -3.6333298826370974 5.838118207697276 0 0 0 0 0 0 0 0 5.826343164929014 0.3712483961610101 -3.6333298826370974 -5.838118207697276 0 0 0 0 0 0 0 -4.610651315171937 0 0 3.0831277533083026 0 0 0 0 0 1.5275236235667615 0 0 0 0 0 0 0 0 0 0 0 0 0 0 0 0 0 0 0 0 0 0 0 0 0 0 0 0 0 0 0 0 0 0 0 0 0 0 0 0 0 0 0 0 0 0 0 0 0 0 0 0 0 0 0 0 1.5275236235667615 0 0 0 0 0 0 0 0 0 0 0 0 0 0 1.5275236235667615 0 0 0 0 0 0 0 0 0 0 0 0 0 0 0 0 0 0 0 0 0 0 0 0 0 0 0 0 0 0 0 0 0 0 0 0 0 0 0 0 0 0 0 0 0 0 0 0 0 0 0 0 0 0 0
0.5340964598188875 1.4988672358277153 -3.411352593200003 0 0 0 0.8608121087252202 -32.094107275887424 -3.125698190210168 10.68269292436855 72.89933961247542 14.71317271856461 4.182711275765162 30.266819919279158 5.118802398069839 0 0 0 -0.8916220309332941 -32.0757230568728 3.1593099792184423 -10.592274010680061 72.8560611277705 -14.657527929181203 -4.237513631804442 30.5888286879823 -5.109283066516129 0 0 0 -0.023270570308781716 -4.796876185922676 -0.025401502330974733 -0.1977117862123998 2.85415541190049 0.5626366221931204 0 0 0 -1.863212359480516 1.195666251787674 -10.14025931881411 -25.2905889994058 -9.358761419703603 -17.402701715924046 -23.646438626722 -1.0154136000988263 -12.501713043359263 -1.9410361865785368 20.420385445033457 -3.7365442345105118 0 0 0 0 0 0 0 0 0 0 0 0 0 0 0 0 0 0 0 0 0 0 0 0 0 0 0 0 0 0 0 0 0 0 0 0 0 0 0 0 0 0 0 0 0 0.15818254852620267 1.4651610835016926 0.2095835561452713 0.06032327021374793 0.12152206977151675 0.0000639145067765322 0 0 0 0 0 0 0 0 0 1.751013080467079 1.2308682949065688 12.475907902947162 24.26795560981037 -8.765686021898109 17.412904063269057 17.75020220063828 0.7997023249911928 13.703197505835858 -3.0801519830061386 -30.97729284819475 4.081938476545583 0 0 0 0 0 0 0 0 0 0 0 0 0 0 0 0 0 0 0 0 0 0 0 0 0 0 0 0 0 0 0 0 0 0 0 0 0 0 0 0 0 0 0 0 0
1.068192919637775 -8.684978509891131 -6.822705186400006 0 0 0 -0.7603517946787397 -64.18260560007829 1.0788942323806898 176.96843032180573 29.819864499460127 179.27561860741065 16.488700353415044 59.64317158959156 18.11063017009744 0 0 0 0.6247583837714525 -64.14855432958828 -0.9386427497823749 -176.95081113367166 29.914567239827935 -179.32108790863978 -16.892896455001516 60.262176708223684 -18.402453960904133 0 0 0 -0.04646473938936386 -4.983111155773203 -0.0507341479339318 -0.3976271570982635 2.6271343852564173 1.1259536795852947 0 0 0 -3.6386776088589254 0.5412960080927934 -20.26315426981159 -48.25359765870846 -24.997127343971087 -29.97933309478059 -46.63337688624717 -6.910914175953784 -23.603561673797778 -6.05231881254096 40.62744432175169 -9.24512418183954 0 0 0 0 0 0 0 0 0 0 0 0 0 0 0 0 0 0 0 0 0 0 0 0 0 0 0 0 0 0 0 0 0 0 0 0 0 0 0 0 0 0 0 0 0 0.31613151879207596 1.402220820505388 0.418988377534253 0.12064708713848561 0.24304399251367337 0.00025577371511030793 0 0 0 0 0 0 0 0 0 3.3963923543165864 0.5632692139715093 24.935429448124896 46.18976712446602 -23.650434357334873 30.472800596833906 35.19434226511858 -2.5996621119484575 27.005268029239236 -13.01616713675282 -61.40283225038324 14.748964908571539 0 0 0 0 0 0 0 0 0 0 0 0 0 0 0 0 0 0 0 0 0 0 0 0 0 0 0 0 0 0 0 0 0 0 0 0 0 0 0 0 0 0 0 0 0
1.068192919637775 -8.684978509891131 -6.822705186400006 0 0 0 -0.7603517946787397 -64.18260560007829 1.0788942323806898 176.96843032180573 29.819864499460127 179.27561860741065 16.488700353415044 59.64317158959156 18.11063017009744 0 0 0 0.6247583837714525 -64.14855432958828 -0.9386427497823749 -176.95081113367166 29.914567239827935 -179.32108790863978 -16.892896455001516 60.262176708223684 -18.402453960904133 0 0 0 -0.04647307511024435 -5.367688117435124 -0.05032895507517887 -0.3988039039777014 3.2600445701124627 1.1236678695045255 0 0 0 -3.7382414253456457 0.09257753153090299 -20.258306848310834 -48.12725029581497 -24.944723024885327 -29.86759861509346 -46.42093336928318 -6.819644923205095 -23.477654100677672 -7.076903173977681 40.40367030554855 -10.324886971856582 0 0 0 0 0 0 0 0 0 0 0 0 0 0 0 0 0 0 0 0 0 0 0 0 0 0 0 0 0 0 0 0 0 0 0 0 0 0 0 0 0 0 0 0 0 0.481056827778888 1.3169019253042595 0.621057426730086 0.18139880825693963 0.3647180762321822 0.006020240460665609 0 0 0 0 0 0 0 0 0 2.990972183270148 0.28300937206353705 24.711380848410922 46.31818265054513 -23.721683448387417 30.53194231477228 35.28706998266436 -2.6482861994294913 27.07488963470847 -13.999174184799033 -61.37312963759686 15.839598137020845 0 0 0 0 0 0 0 0 0 0 0 0 0 0 0 0 0 0 0 0 0 0 0 0 0 0 0 0 0 0 0 0 0 0 0 0 0 0 0 0 0 0 0 0 0
1.068192919637775 -8.684978509891131 -6.822705186400006 0 0 0 -0.7603517946787397 -64.18260560007829 1.0788942323806898 176.96843032180573 29.819864499460127 179.27561860741065 16.488700353415044 59.64317158959156 18.11063017009744 0 0 0 0.6247583837714525 -64.14855432958828 -0.9386427497823749 -176.95081113367166 29.914567239827935 -179.32108790863978 -16.892896455001516 60.262176708223684 -18.402453960904133 0 0 0 -0.046484148456848694 -5.7522649350237165 -0.049923439913836076 -0.4000067910711064 3.892954688950502 1.1213676227601057 0 0 0 -3.837845320010483 -0.35613182494330176 -20.252677824643992 -48.00084172005019 -24.892542409920097 -29.75578137303797 -46.208327540454164 -6.728839665660406 -23.35143139262778 -8.092291975700475 40.16531652412105 -11.395556973643936 0 0 0 0 0 0 0 0 0 0 0 0 0 0 0 0 0 0 0 0 0 0 0 0 0 0 0 0 0 0 0 0 0 0 0 0 0 0 0 0 0 0 0 0 0 0.6456746763170328 1.2310023683090896 0.8228732374753766 0.2421637131892144 0.48638601381440877 0.011913812653295114 0 0 0 0 0 0 0 0 0 2.5866558253043155 0.0011734124505781672 24.489322828583607 46.44658496104149 -23.793051738255212 30.590940167801605 35.37973934204585 -2.697022668268045 27.14443530146994 -14.979751630360628 -61.33447649065086 16.927818663764135 0 0 0 0 0 0 0 0 0 0 0 0 0 0 0 0 0 0 0 0 0 0 0 0 0 0 0 0 0 0 0 0 0 0 0 0 0 0 0 0 0 0 0 0 0
1.068192919637775 -8.684978509891131 -6.822705186400006 0 0 0 -0.7603517946787397 -64.18260560007829 1.0788942323806898 176.96843032180573 29.819864499460127 179.27561860741065 16.488700353415044 59.64317158959156 18.11063017009744 0 0 0 0.6247584691714767 -64.14855432958828 -0.938643367524281 -176.95081113367166 29.914567239827935 -179.32108840110823 -16.892896455001516 60.262176708223684 -18.402453960904133 0 0 0 -0.04649772417707927 -6.137032408582358 -0.049517779073162356 -0.4012379497794744 4.526719926167464 1.1190484937085226 0 0 0 -3.9375720614033347 -0.8051495615302539 -20.24626890506533 -47.8743458058903 -24.840560710785592 -29.643871072976875 -45.995500784122136 -6.638477714203964 -23.22485952831251 -9.100859104284156 39.91186883393877 -12.459670704799944 0 0 0 0 0 0 0 0 0 0 0 0 0 0 0 0 0 0 0 0 0 0 0 0 0 0 0 0 0 0 0 0 0 0 0 0 0 0 0 0 0 0 0 0 0 0.8101247829452556 1.144448895560578 1.0246083000777757 0.30295544565667293 0.6080741283629845 0.01793798642246958 0 0 0 0 0 0 0 0 0 2.1830340453733994 -0.282499316140198 24.26904172878009 46.57500489841427 -23.864560072998465 30.64980524316773 35.4723583617483 -2.745874345071001 27.213906852423463 -15.958179035958546 -61.2868703385243 18.014009425359404 0 0 0 0 0 0 0 0 0 0 0 0 0 0 0 0 0 0 0 0 0 0 0 0 0 0 0 0 0 0 0 0 0 0 0 0 0 0 0 0 0 0 0 0 0
1.068192919637775 -8.684978509891131 -6.822705186400006 0 0 0 -0.7603517946787397 -64.18260560007829 1.0788942323806898 176.96843032180573 29.819864499460127 179.27561860741065 16.488700353415044 59.64317158959156 18.11063017009744 0 0 0 0.6247585118714977 -64.14856216166888 -0.9386439852663555 -176.95081113367166 29.914567239827935 -179.32108895513522 -16.892896455001516 60.262176708223684 -18.402453960904133 0 0 0 -0.046514048319035606 -6.521800350500429 -0.04911171535242587 -0.40249604357278096 5.160484761756791 1.1167136107735147 0 0 0 -4.037363007561754 -1.2541554308620573 -20.239077882104677 -47.74778846449262 -24.788805846698803 -29.531880549380308 -45.78251386089962 -6.548583090763711 -23.097975158100517 -10.099329675889116 39.64419035225032 -13.513805880603032 0 0 0 0 0 0 0 0 0 0 0 0 0 0 0 0 0 0 0 0 0 0 0 0 0 0 0 0 0 0 0 0 0 0 0 0 0 0 0 0 0 0 0 0 0 0.9742644183918627 1.0573173697639735 1.226088076197603 0.3637614817496077 0.7297557537900637 0.024091427917207912 0 0 0 0 0 0 0 0 0 1.7804908972784672 -0.567714709701677 24.0507563840668 46.70341214978322 -23.936190113686905 30.708528915016142 35.564921940555955 -2.7948378602012514 27.283298385117746 -16.932937871845432 -61.23038020576236 19.096554416920984 0 0 0 0 0 0 0 0 0 0 0 0 0 0 0 0 0 0 0 0 0 0 0 0 0 0 0 0 0 0 0 0 0 0 0 0 0 0 0 0 0 0 0 0 0
1.068192919637775 -8.684978509891131 -6.822705186400006 0 0 0 -0.7603517946787397 -64.18260560007829 1.0788942323806898 176.96843032180573 29.819864499460127 179.27561860741065 16.488700353415044 59.64317158959156 18.11062856443405 0 0 0 0.6247583837714525 -64.14855432958828 -0.9386432392216325 -176.9508101863802 29.914577089888574 -179.3210879235131 -16.892894454384006 60.262176708223684 -18.402451240981158 0 0 0 -0.04653292148972208 -6.906724166411413 -0.048704947996693185 -0.40378279747953866 5.794949878880952 1.114359692710122 0 0 0 -4.13728939983793 -1.7034088587693632 -20.231091117522602 -47.62117901493792 -24.737283131622544 -29.419793867044802 -45.569320338564744 -6.45913942420135 -22.970748782433883 -11.08958562567407 39.361839575863534 -14.559982530641825 0 0 0 0 0 0 0 0 0 0 0 0 0 0 0 0 0 0 0 0 0 0 0 0 0 0 0 0 0 0 0 0 0 0 0 0 0 0 0 0 0 0 0 0 0 1.138225985858832 0.9695382610446487 1.4274761936236744 0.4245945135031809 0.8514554001242574 0.030374945682536493 0 0 0 0 0 0 0 0 0 1.3786902082551327 -0.8546857439541788 23.834291589700634 46.831816306506965 -24.007942174817416 30.767111149027546 35.65743212921446 -2.8439154003606295 27.352622459407392 -17.904154010736065 -61.165011321290336 20.17566918802185 0 0 0 0 0 0 0 0 0 0 0 0 0 0 0 0 0 0 0 0 0 0 0 0 0 0 0 0 0 0 0 0 0 0 0 0 0 0 0 0 0 0 0 0 0
